# xmcd CD database file
#
# Track frame offsets:
#	150
#	11759
#	20876
#	33458
#	46013
#	60568
#	72119
#	88092
#	100092
#	109591
#	121104
#	129641
#	143554
#	155552
#	167049
#	177445
#	190564
#	201884
#	212499
#	219881
#
# Disc length: 3080 seconds
#
# Revision: 0
# Processed by: cddbd v1.5.2PL0 Copyright (c) Steve Scherf et al.
# Submitted via: CDex 1.51
#
DISCID=0e0c0614
DTITLE=Various Artist - Night train New orleans Disc 1
DYEAR=2001
DGENRE=Blues
TTITLE0=Cousin Joe-Living On Borrowed Time
TTITLE1=Jerry Raines-Dixieland Rock
TTITLE2=Irma Thomas-She's My Part
TTITLE3=Snookum Russell-Be Bop (That's The Kick I'm In)
TTITLE4=The Gaturs-Sweet Thing
TTITLE5=Eddie Bo-Love Has Been Good
TTITLE6=Mary Jane Hooper-I'm In A Loving Groove
TTITLE7=Reggie Hall-Always Picking On Me
TTITLE8=Casanova and The Chants-Geraldine
TTITLE9=Preston Jackson-Three Quarter Stomp Pt2
TTITLE10=Stella Johnson-The Trial Of Stagger Lee
TTITLE11=Walter Wolfman Washington- Mary Jane
TTITLE12=Joe Barry-Little Jewel Of The Vieux Carre
TTITLE13=Ernie K Doe-Popeye Joe
TTITLE14=Julian With Tasso And His Orchestra-Get On The Moon
TTITLE15=Roy Perkins-You're On My Mind
TTITLE16=Huey Smith-Through Fooling Around
TTITLE17=Bobby Mitchell And The Toppers-I Dooe Got Over it
TTITLE18=Doc Souchan-Animule's Ball
TTITLE19=Lydia Marcelle-Everybody Dance
EXTD=YEAR: 2001
EXTT0=
EXTT1=
EXTT2=
EXTT3=
EXTT4=
EXTT5=
EXTT6=
EXTT7=
EXTT8=
EXTT9=
EXTT10=
EXTT11=
EXTT12=
EXTT13=
EXTT14=
EXTT15=
EXTT16=
EXTT17=
EXTT18=
EXTT19=
PLAYORDER=
